<?xml version="1.0" encoding="utf-8"?><!DOCTYPE svg PUBLIC "-//W3C//DTD SVG 1.1//EN" "http://www.w3.org/Graphics/SVG/1.1/DTD/svg11.dtd"><svg xmlns="http://www.w3.org/2000/svg" xmlns:xlink="http://www.w3.org/1999/xlink"><symbol viewBox="0 0 14 12" id="arrow-back" xmlns="http://www.w3.org/2000/svg"><path d="M12.833 6H1.167m0 0l5 5m-5-5l5-5"/></symbol><symbol fill="none" viewBox="0 0 14 9" id="arrow-up" xmlns="http://www.w3.org/2000/svg"><path d="M1.167 7.057L7 1.223l5.833 5.834" stroke="#18334A" stroke-width="2" stroke-linecap="round" stroke-linejoin="round"/></symbol><symbol viewBox="0 0 24 15" id="bike" xmlns="http://www.w3.org/2000/svg"><path d="M22.562 6.26a4.856 4.856 0 00-3.463-1.439 5.21 5.21 0 00-1.705.293L15.263.613A1.086 1.086 0 0014.304 0h-1.279a.42.42 0 00-.426.426c0 .24.187.426.426.426h1.28c.079 0 .159.054.186.107l.639 1.332-5.727-.027-.16-.426h.266a.42.42 0 00.427-.426.42.42 0 00-.427-.426H7.592a.42.42 0 00-.427.426c0 .24.187.426.427.426h.719l.32.8-1.599 2.636a4.693 4.693 0 00-2.104-.48C2.21 4.822 0 7.007 0 9.697c0 1.305.506 2.53 1.412 3.436a4.856 4.856 0 003.463 1.438H4.9a4.906 4.906 0 004.875-4.368H11.8c.16 0 .293-.08.373-.213l3.543-6.393.906 1.891a4.57 4.57 0 00-.986.746 4.75 4.75 0 00-1.438 3.436c0 1.306.506 2.53 1.411 3.436a4.856 4.856 0 003.463 1.439h.027A4.912 4.912 0 0024 9.696a5.074 5.074 0 00-1.438-3.436zm-17.66 7.458s-.027 0 0 0a4.03 4.03 0 01-2.878-1.199A3.991 3.991 0 01.852 9.696c0-2.211 1.812-3.996 4.05-3.996h.026a4.26 4.26 0 011.651.347L4.422 9.563a.409.409 0 000 .426c.08.133.213.213.373.213h4.128c-.266 1.971-1.97 3.516-4.022 3.516zM5.54 9.35l1.758-2.877c.16.133.32.24.479.4A3.978 3.978 0 018.923 9.35H5.541zm4.235 0a4.761 4.761 0 00-1.412-3.09 5.854 5.854 0 00-.613-.533l1.252-2.051 2.185 5.674H9.776zm2.104-.586L9.75 3.17l5.247.026-3.117 5.568zm7.192 4.954a4.03 4.03 0 01-2.877-1.199 3.992 3.992 0 01-1.172-2.823c0-1.066.427-2.078 1.199-2.824.24-.24.48-.426.746-.586l1.705 3.596c.08.16.24.24.4.24.052 0 .132 0 .186-.053.213-.107.293-.346.213-.56l-1.705-3.596a4.359 4.359 0 011.332-.213h.026c1.093 0 2.105.427 2.85 1.199a3.943 3.943 0 011.173 2.85c-.027 2.184-1.838 3.97-4.076 3.97z" fill="#fff"/></symbol><symbol viewBox="0 0 20 20" id="block" xmlns="http://www.w3.org/2000/svg"><path fill-rule="evenodd" clip-rule="evenodd" d="M10 .833c1.895 0 3.545.387 4.903 1.113a7.572 7.572 0 013.15 3.15c.727 1.358 1.113 3.009 1.113 4.904s-.386 3.546-1.113 4.903a7.573 7.573 0 01-3.15 3.15c-1.358.727-3.008 1.114-4.903 1.114-1.896 0-3.546-.387-4.904-1.113a7.572 7.572 0 01-3.15-3.15C1.22 13.545.833 11.894.833 10s.387-3.546 1.113-4.904a7.572 7.572 0 013.15-3.15C6.454 1.22 8.104.833 10 .833zM3.563 5.961C2.977 7.056 2.666 8.414 2.666 10c0 1.585.311 2.944.897 4.039a5.74 5.74 0 002.398 2.398c1.094.585 2.453.896 4.039.896 1.585 0 2.944-.31 4.039-.896l.158-.09a.417.417 0 00.082-.653L4.306 5.72a.417.417 0 00-.654.083l-.09.158zM10 2.667c-1.586 0-2.945.31-4.04.896l-.157.09a.417.417 0 00-.083.653l9.974 9.974a.417.417 0 00.653-.083l.09-.158c.585-1.095.896-2.454.896-4.039 0-1.586-.31-2.944-.896-4.039a5.74 5.74 0 00-2.398-2.398c-1.095-.585-2.454-.896-4.04-.896z"/></symbol><symbol viewBox="0 0 20 20" id="calendar" xmlns="http://www.w3.org/2000/svg"><path d="M4 4V1m4 3V1m4 3V1m4 3V1m3 7H1m2 11h14a2 2 0 002-2V5a2 2 0 00-2-2H3a2 2 0 00-2 2v12a2 2 0 002 2z"/></symbol><symbol viewBox="0 0 24 20" id="car" xmlns="http://www.w3.org/2000/svg"><path d="M23.948 8.347l-.31-.91c-.172-.5-.716-.908-1.22-.908h-1.06a71.565 71.565 0 00-1.575-4.06c-.415-.944-1.744-1.144-2.476-1.352 0 0-1.221-.375-5.296-.375-4.076 0-5.296.375-5.296.375-.856.29-2.047.475-2.52 1.395-.189.364-.885 2.08-1.56 4.017H1.587c-.501 0-1.049.408-1.221.909l-.312.909c-.173.504.096 1.089.597 1.089h1.048c-.279.816-.468 1.192-.468 1.192-.076.135-.132.749-.132.915v6.804c0 .504.405.91.908.91h2.527a.908.908 0 00.91-.91v-1.275h13.132v1.275a.91.91 0 00.909.91h2.527a.908.908 0 00.91-.91v-6.804c0-.165-.056-.78-.136-.915 0 0-.192-.38-.475-1.192h1.04c.5 0 .768-.585.595-1.09h.002zM6.645 13.804H5.436c-1.08 0-2.157-.16-2.157-.91v-.908c0-.876.463-.91.967-.91.49 0 1.461.454 2.103.766.7.34 1.476.624 1.476 1.192 0 .528-.271.771-1.179.771l-.001-.001zM4.12 7.5c.64-2.532 1.335-3.483 1.485-3.88.123-.292.243-1.186 6.401-1.186 6.163 0 6.305 1.025 6.324 1.035.189.543.944 1.697 1.548 4.032 0 0-2.604.848-7.869.848-5.268-.003-7.889-.848-7.889-.848v-.001zm16.62 5.394c0 .748-1.08.909-2.16.909h-1.207c-.912 0-1.179-.243-1.179-.765 0-.569.78-.852 1.476-1.193.64-.312 1.611-.765 2.1-.765.501 0 .969.032.969.91v.904h.002z"/></symbol><symbol fill="none" viewBox="0 0 12 10" id="check" xmlns="http://www.w3.org/2000/svg"><path d="M1 4.5L4.5 8 11 1" stroke="#fff" stroke-width="2"/></symbol><symbol fill="none" viewBox="0 0 12 12" id="decline" xmlns="http://www.w3.org/2000/svg"><path d="M1.333 1.333L6 6m4.667 4.667L6 6m0 0l4.667-4.667-9.334 9.334"/></symbol><symbol viewBox="0 0 20 20" id="edit" xmlns="http://www.w3.org/2000/svg"><path d="M11.341 10.073a1 1 0 00-1.414-1.414l1.414 1.414zm-5.898 3.07a1 1 0 101.414 1.414l-1.414-1.415zm-3.776-.079h-1 1zm0 5h1-1zM18.07 6.042l-.708.707.708-.707zm-4.113-4.113l.707-.707-.707.707zM7.126 18.255l-.707-.707.707.707zM18.07 7.31l.707.707-.707-.707zM1.745 12.874l-.707-.707.707.707zM12.69 1.93l-.707-.707.707.707zM9.927 8.66l-4.484 4.483 1.414 1.415 4.484-4.484-1.414-1.414zm-9.26 4.405v5h2v-5h-2zm6.269 4.27h-5v2h5v-2zm11.842-12l-4.112-4.112-1.415 1.414 4.112 4.113 1.415-1.414zM7.833 18.962l8.889-8.889-1.415-1.414-8.888 8.888 1.414 1.415zm8.889-8.889l2.056-2.056-1.415-1.414-2.056 2.056 1.415 1.414zm-14.27 3.508l8.89-8.888-1.415-1.415-8.889 8.889 1.415 1.414zm8.89-8.888l2.055-2.057-1.414-1.414-2.056 2.056 1.414 1.415zm5.38 3.966l-5.38-5.38-1.415 1.414 5.38 5.38 1.415-1.414zM.667 18.064c0 .701.568 1.27 1.269 1.27v-2a.73.73 0 01.73.73h-2zm2-5c0 .194-.077.38-.214.517l-1.415-1.414a1.27 1.27 0 00-.371.897h2zM17.363 6.75a.103.103 0 010-.146l1.415 1.414c.74-.74.74-1.942 0-2.682l-1.415 1.414zM6.936 19.333c.336 0 .659-.133.897-.371l-1.414-1.415a.73.73 0 01.517-.214v2zm7.73-18.11a1.897 1.897 0 00-2.683 0l1.414 1.413a.103.103 0 01-.146 0l1.415-1.414z"/></symbol><symbol viewBox="0 0 28 28" id="heat" xmlns="http://www.w3.org/2000/svg"><path fill-rule="evenodd" clip-rule="evenodd" d="M24.442 15.934C26.581 14.456 28 11.855 28 8.893 28 4.29 24.574.56 20.349.56c-2.302 0-4.367 1.107-5.77 2.859a9.534 9.534 0 00-.286-.004c-5.647 0-10.225 4.991-10.225 11.149 0 .794.076 1.568.221 2.315C1.855 17.325 0 19.625 0 22.395c0 3.09 2.307 5.594 5.152 5.594 2.117 0 3.935-1.385 4.728-3.366a9.49 9.49 0 004.413 1.09c5.222 0 9.53-4.268 10.15-9.78z" fill-opacity=".22"/><path fill-rule="evenodd" clip-rule="evenodd" d="M21.772 12.106c.997-.673 1.657-1.85 1.657-3.19 0-2.09-1.607-3.785-3.59-3.785-1.265 0-2.377.69-3.017 1.733a4.94 4.94 0 00-.234-.005c-2.867 0-5.191 2.481-5.191 5.543 0 3.06 2.324 5.542 5.191 5.542s5.191-2.481 5.191-5.542c0-.1-.002-.198-.007-.296zM5.477 24.56c1.447 0 2.62-1.238 2.62-2.765 0-1.527-1.173-2.764-2.62-2.764s-2.62 1.238-2.62 2.764c0 1.527 1.173 2.765 2.62 2.765z" fill-opacity=".72"/></symbol><symbol viewBox="0 0 18 18" id="layers" xmlns="http://www.w3.org/2000/svg"><path fill-rule="evenodd" clip-rule="evenodd" d="M16.985 5.71L10.842.934a3 3 0 00-3.684 0L1.015 5.71a1 1 0 000 1.578l6.143 4.779a3 3 0 003.684 0l6.143-4.779a1 1 0 000-1.578zm-.3 4.767a1 1 0 00-1.227 0l-4.616 3.59a3 3 0 01-3.684 0l-4.615-3.59a1 1 0 00-1.228 0l-.3.234a1 1 0 000 1.579l6.143 4.777a3 3 0 003.684 0l6.143-4.778a1.001 1.001 0 000-1.578l-.3-.234z"/></symbol><symbol viewBox="0 0 20 24" id="location" xmlns="http://www.w3.org/2000/svg"><path fill-rule="evenodd" clip-rule="evenodd" d="M10.45 23.194c2.234-2.086 9.05-8.823 9.05-13.363C19.5 4.401 15.135 0 9.75 0S0 4.402 0 9.831c0 4.54 6.816 11.277 9.05 13.363a1.017 1.017 0 001.4 0zm-.7-9.11a4.333 4.333 0 100-8.667 4.333 4.333 0 000 8.666z"/></symbol><symbol viewBox="0 0 18 19" id="location-arrow" xmlns="http://www.w3.org/2000/svg"><path d="M16.07.677L1.324 5.852c-.847.297-.904 1.473-.09 1.85l6.15 2.854 2.889 6.975c.354.855 1.578.812 1.872-.065L17.35 1.938A1 1 0 0016.07.677z"/></symbol><symbol fill="none" viewBox="0 0 20 20" id="map" xmlns="http://www.w3.org/2000/svg"><g clip-path="url(#anclip0)"><path d="M.833 5v13.333L6.667 15l6.666 3.333L19.167 15V1.667L13.333 5 6.667 1.667.833 5z" stroke="#18334A" stroke-width="2" stroke-linecap="round" stroke-linejoin="round"/><path d="M6.667 1.667V15M13.333 5v13.333"/></g><defs><clipPath id="anclip0"><path d="M0 0h20v20H0z"/></clipPath></defs></symbol><symbol viewBox="0 0 24 14" id="motobike" xmlns="http://www.w3.org/2000/svg"><path d="M8.145 10.65h5.184l2.981-5.873 1.083 2.065a3.735 3.735 0 10.994-.49L15.054.001h-2.502v1.107h1.833l.556 1.06h-4.74l-.83 1.936H2.364l-.83 1.476 4.576-.077c.897.571 2.496 1.83 2.826 3.673h-.79a3.735 3.735 0 00-7.396.738 3.73 3.73 0 002.116 3.361c.49.237 1.038.373 1.619.374a3.735 3.735 0 003.66-2.997zm9.941-2.485l1.124 2.143.98-.513-1.1-2.1a2.262 2.262 0 012.685 2.217 2.26 2.26 0 01-2.26 2.26 2.262 2.262 0 01-2.259-2.26 2.26 2.26 0 01.83-1.747zM6.617 10.651a2.261 2.261 0 01-2.132 1.52 2.262 2.262 0 01-2.26-2.258 2.263 2.263 0 012.26-2.26 2.262 2.262 0 012.132 1.522H4.392v1.476h2.225z" fill="#fff"/><path d="M16.938 2.277c.138.468.566.812 1.08.812V.83a1.13 1.13 0 00-1.13 1.13c0 .112.02.217.05.318z" fill="#fff"/></symbol><symbol viewBox="0 0 11 22" id="pedestrian" xmlns="http://www.w3.org/2000/svg"><path d="M7.013 1.017c.566 1.18.437 2.882-.386 3.294-.822.44-2.134-.576-2.648-1.757-.36-.906-.026-1.977.797-2.389.849-.411 1.826-.027 2.237.852zM10.24 17.26c.284 1.38.611 2.966.733 3.662.257 1.346-1.389 1.318-1.671.494-.232-.768-1.132-4.585-1.286-5.244 0-.055-.026-.11-.077-.164l-3.831-4.201c-.129-.137-.257-.33-.257-.522V7.167c0-.138-.052-.192-.129-.138l-1.157.824c-.206.11-.257.247-.257.687v3.02c0 1.016-1.543.96-1.543 0L.842 7.44c0-.22.103-.439.283-.549l3.343-2.196c.463-.302 1.028-.192 1.388.22l.9 1.098c.129.192.18.631.18.878v4.942l2.674 2.828c.077.11.154.247.18.385.074.394.252 1.254.45 2.214z" fill="#fff"/><path d="M7.707 10.736V8.814c0-.22.18-.274.258-.274.147.177.435.536.765.948.589.734 1.313 1.638 1.626 1.99.565.63-.412 1.674-.977 1.07-.283-.302-1.672-1.812-1.672-1.812zM3.953 13.042c-.178.345-.622 1.22-1.147 2.258C1.739 17.404.338 20.17.148 20.483c-.643 1.098.977 2.114 1.594 1.098.386-.631 3.78-7.166 3.78-7.166l-1.363-1.4c-.051-.082-.154-.055-.206.027z" fill="#fff"/></symbol><symbol viewBox="0 0 16 12" id="photo" xmlns="http://www.w3.org/2000/svg"><path fill-rule="evenodd" clip-rule="evenodd" d="M14.943 11.61c.25-.25.39-.59.39-.943V3.333A1.334 1.334 0 0014 2h-2.667L10 0H6L4.667 2H2A1.333 1.333 0 00.667 3.333v7.334A1.333 1.333 0 002 12h12c.354 0 .693-.14.943-.39zm-4.276-4.943a2.667 2.667 0 11-5.334 0 2.667 2.667 0 015.334 0z"/></symbol><symbol fill="none" viewBox="0 0 36 50" id="pin" xmlns="http://www.w3.org/2000/svg"><path fill-rule="evenodd" clip-rule="evenodd" d="M18 50c2.21 0 4-.895 4-2s-1.79-2-4-2-4 .895-4 2 1.79 2 4 2z" fill="#18334A"/><rect x="17" y="30" width="2" height="18" rx="1" fill="#18334A"/><path d="M17.89 0h.22c3.768 0 6.962.752 9.602 2.164a14.72 14.72 0 016.124 6.124C35.248 10.928 36 14.122 36 17.89v.22c0 3.768-.752 6.962-2.164 9.602a14.72 14.72 0 01-6.124 6.124C25.072 35.248 21.878 36 18.11 36h-.22c-3.768 0-6.963-.752-9.602-2.164a14.72 14.72 0 01-6.124-6.124C.814 25.187.067 22.155.004 18.6L0 17.889c0-3.767.752-6.961 2.164-9.601a14.72 14.72 0 016.124-6.124C10.928.752 14.122 0 17.89 0z" fill="#18334A"/><path d="M17.926 6h.148c2.511 0 4.641.501 6.401 1.443a9.814 9.814 0 014.082 4.082C29.5 13.285 30 15.415 30 17.926v.148c0 2.511-.501 4.641-1.442 6.401a9.814 9.814 0 01-4.083 4.082C22.715 29.5 20.585 30 18.074 30h-.148c-2.511 0-4.641-.501-6.401-1.442a9.814 9.814 0 01-4.082-4.083c-.9-1.684-1.399-3.705-1.44-6.076L6 17.926c0-2.511.501-4.641 1.443-6.401a9.813 9.813 0 014.082-4.082C13.285 6.5 15.415 6 17.926 6z" fill="#F4F8FA"/><path d="M17.963 12h.074c1.256 0 2.32.25 3.2.721.88.47 1.571 1.162 2.042 2.041.47.88.721 1.945.721 3.201v.074c0 1.256-.25 2.32-.721 3.2a4.906 4.906 0 01-2.041 2.042c-.88.47-1.945.721-3.201.721h-.074c-1.256 0-2.32-.25-3.2-.721a4.906 4.906 0 01-2.042-2.041c-.45-.842-.699-1.853-.72-3.038L12 17.963c0-1.256.25-2.32.721-3.2a4.906 4.906 0 012.041-2.042c.88-.47 1.945-.721 3.201-.721zM18 43.998s.417-1.33 1-2.998c0-2.223 2.056-4.863 6-6H11.018C14.95 36.137 17 38.836 17 41c.581 1.668 1 2.998 1 2.998z" fill="#18334A"/></symbol><symbol viewBox="0 0 54 37" id="pointer" xmlns="http://www.w3.org/2000/svg"><path d="M39 10H15c4.2 0 9 7 12 7s7.8-7 12-7z"/></symbol><symbol viewBox="0 0 17 19" id="profile" xmlns="http://www.w3.org/2000/svg"><path d="M13.05 11.327c-1.265 1.9-2.936 3.23-4.907 3.23s-3.643-1.33-4.907-3.232C1.895 11.868 0 12.897 0 14.584c0 1.657.794 3.164 2.382 3.638 1.372.41 3.308.778 5.76.778 2.453 0 4.39-.369 5.762-.778 1.588-.475 2.382-1.981 2.382-3.638 0-1.684-1.896-2.714-3.236-3.257z"/><path d="M3.798 9.633C3.114 8.02 2.714 6.074 2.714 4.108 2.714 1.875 5.104 0 8.143 0c3.038 0 5.428 1.875 5.428 4.108 0 1.966-.4 3.913-1.083 5.525l-.004-.002c-1.246 2.314-2.796 3.57-4.341 3.57-1.545 0-3.095-1.256-4.341-3.57l-.004.002z"/></symbol><symbol viewBox="0 0 24 24" id="profile-circle" xmlns="http://www.w3.org/2000/svg"><path fill-rule="evenodd" clip-rule="evenodd" d="M2 12C2 6.477 6.477 2 12 2s10 4.477 10 10c0 2.261-.75 4.347-2.016 6.022a3.12 3.12 0 00.087-.706c0-1.453-1.831-2.372-3.223-2.888-1.154 1.894-2.824 3.322-4.848 3.322-2.022 0-3.69-1.424-4.844-3.314-1.355.516-3.116 1.433-3.116 2.88 0 .287.045.592.128.902A9.957 9.957 0 012 12zM12 0C5.373 0 0 5.373 0 12s5.373 12 12 12 12-5.373 12-12S18.627 0 12 0zm4.946 7.744c0 2.217-.548 4.414-1.46 6.035-1.02 1.613-2.257 2.471-3.486 2.471s-2.466-.858-3.486-2.471c-.912-1.621-1.459-3.818-1.459-6.035C7.055 5.705 9.225 4 12 4c2.774 0 4.946 1.705 4.946 3.744z"/></symbol><symbol viewBox="0 0 31.357 31.357" id="question" xmlns="http://www.w3.org/2000/svg"><path d="M15.255 0c5.424 0 10.764 2.498 10.764 8.473 0 5.51-6.314 7.629-7.67 9.62-1.018 1.481-.678 3.562-3.475 3.562-1.822 0-2.712-1.482-2.712-2.838 0-5.046 7.414-6.188 7.414-10.343 0-2.287-1.522-3.643-4.066-3.643-5.424 0-3.306 5.592-7.414 5.592-1.483 0-2.756-.89-2.756-2.584C5.339 3.683 10.084 0 15.255 0zm-.211 24.406a3.492 3.492 0 013.475 3.476 3.49 3.49 0 01-3.475 3.476 3.49 3.49 0 01-3.476-3.476 3.491 3.491 0 013.476-3.476z"/></symbol><symbol viewBox="0 0 20 20" id="search" xmlns="http://www.w3.org/2000/svg"><path d="M13.5 13.5l5 5m-3-10a7 7 0 11-14 0 7 7 0 0114 0z"/></symbol><symbol viewBox="0 0 20 16" id="videocamera" xmlns="http://www.w3.org/2000/svg"><path d="M14.583 12.98l2.775 1.648c.376.228.818.372 1.216.372.862 0 1.426-.432 1.426-1.055v-7.89C20 5.433 19.436 5 18.574 5c-.398 0-.84.144-1.216.372l-2.775 1.642v5.967z"/><path fill-rule="evenodd" clip-rule="evenodd" d="M13.333 6.667a2.5 2.5 0 00-2.5-2.5H2.5a2.5 2.5 0 00-2.5 2.5v6.666a2.5 2.5 0 002.5 2.5h8.333a2.5 2.5 0 002.5-2.5V6.667z"/></symbol><symbol viewBox="0 0 489.418 489.418" id="warning-sign" xmlns="http://www.w3.org/2000/svg"><path d="M244.709 389.496c18.736 0 34.332-14.355 35.91-33.026l24.359-290.927a60.493 60.493 0 00-15.756-46.011C277.783 7.09 261.629 0 244.709 0s-33.074 7.09-44.514 19.532a60.485 60.485 0 00-15.755 46.011l24.359 290.927c1.578 18.671 17.174 33.026 35.91 33.026zM244.709 410.908c-21.684 0-39.256 17.571-39.256 39.256 0 21.683 17.572 39.254 39.256 39.254s39.256-17.571 39.256-39.254c0-21.685-17.572-39.256-39.256-39.256z"/></symbol><symbol viewBox="0 0 22 22" id="wheel" xmlns="http://www.w3.org/2000/svg"><path d="M11 0C4.95 0 0 4.95 0 11s4.95 11 11 11 11-4.95 11-11S17.05 0 11 0zM2.338 7.15C3.85 3.85 7.15 1.65 11 1.65c3.85 0 7.15 2.2 8.663 5.5.137.275.137.412 0 .688-.138.275-.276.412-.55.412l-3.163.688c-.412.137-.825-.138-1.1-.413-.825-1.375-2.2-2.2-3.85-2.2a4.57 4.57 0 00-3.85 2.062c-.275.413-.688.55-1.1.413l-3.162-.688c-.138 0-.413-.137-.55-.412v-.55zM9.9 19.525c0 .275-.138.413-.275.55-.137.137-.412.137-.688.137-4.262-.825-7.424-4.675-7.424-9.212 0-.275.137-.412.275-.55.137-.137.412-.137.687-.137L5.638 11c.412 0 .687.275.825.688.274 1.65 1.375 3.024 2.887 3.574.412.138.688.55.688.963v3.3H9.9zm3.162.688c-.274 0-.412 0-.687-.138-.137-.137-.275-.412-.275-.55v-3.162c0-.413.275-.825.688-.963 1.512-.55 2.612-1.925 2.887-3.575 0-.412.412-.688.825-.825l3.163-.688c.274 0 .412 0 .687.138.137.138.275.413.275.55-.137 4.537-3.3 8.387-7.563 9.212z"/></symbol><symbol viewBox="0 0 20 162" id="zones" xmlns="http://www.w3.org/2000/svg"><path d="M0 0h20v2H0zM7 8h6v2H7V8zM4 16h12v2H4v-2zM7 24h6v2H7v-2zM4 32h12v2H4v-2zM7 40h6v2H7v-2zM4 48h12v2H4v-2zM7 56h6v2H7v-2zM4 64h12v2H4v-2zM7 72h6v2H7v-2zM4 80h12v2H4v-2zM7 88h6v2H7v-2zM4 96h12v2H4v-2zM7 104h6v2H7v-2zM4 112h12v2H4v-2zM7 120h6v2H7v-2zM4 128h12v2H4v-2zM7 136h6v2H7v-2zM4 144h12v2H4v-2zM7 152h6v2H7v-2zM0 160h20v2H0z"/></symbol></svg>