<?xml version="1.0" encoding="utf-8"?><svg xmlns="http://www.w3.org/2000/svg" xmlns:xlink="http://www.w3.org/1999/xlink"><symbol fill="none" viewBox="0 0 14 9" id="arrow-up" xmlns="http://www.w3.org/2000/svg"><path d="M1.167 7.057L7 1.223l5.833 5.834" stroke="#18334A" stroke-width="2" stroke-linecap="round" stroke-linejoin="round"/></symbol><symbol fill="none" viewBox="0 0 20 20" id="calendar" xmlns="http://www.w3.org/2000/svg"><path d="M4 4V1m4 3V1m4 3V1m4 3V1m3 7H1m2 11h14a2 2 0 002-2V5a2 2 0 00-2-2H3a2 2 0 00-2 2v12a2 2 0 002 2z" stroke="#18334A" stroke-width="2" stroke-linecap="round" stroke-linejoin="round"/></symbol><symbol fill="none" viewBox="0 0 12 10" id="check" xmlns="http://www.w3.org/2000/svg"><path d="M1 4.5L4.5 8 11 1" stroke="#fff" stroke-width="2"/></symbol><symbol fill="none" viewBox="0 0 12 12" id="decline" xmlns="http://www.w3.org/2000/svg"><path d="M1.333 1.333L6 6m4.667 4.667L6 6m0 0l4.667-4.667-9.334 9.334"/></symbol><symbol viewBox="0 0 20 20" id="edit" xmlns="http://www.w3.org/2000/svg"><path d="M11.341 10.073a1 1 0 00-1.414-1.414l1.414 1.414zm-5.898 3.07a1 1 0 101.414 1.414l-1.414-1.415zm-3.776-.079h-1 1zm0 5h1-1zM18.07 6.042l-.708.707.708-.707zm-4.113-4.113l.707-.707-.707.707zM7.126 18.255l-.707-.707.707.707zM18.07 7.31l.707.707-.707-.707zM1.745 12.874l-.707-.707.707.707zM12.69 1.93l-.707-.707.707.707zM9.927 8.66l-4.484 4.483 1.414 1.415 4.484-4.484-1.414-1.414zm-9.26 4.405v5h2v-5h-2zm6.269 4.27h-5v2h5v-2zm11.842-12l-4.112-4.112-1.415 1.414 4.112 4.113 1.415-1.414zM7.833 18.962l8.889-8.889-1.415-1.414-8.888 8.888 1.414 1.415zm8.889-8.889l2.056-2.056-1.415-1.414-2.056 2.056 1.415 1.414zm-14.27 3.508l8.89-8.888-1.415-1.415-8.889 8.889 1.415 1.414zm8.89-8.888l2.055-2.057-1.414-1.414-2.056 2.056 1.414 1.415zm5.38 3.966l-5.38-5.38-1.415 1.414 5.38 5.38 1.415-1.414zM.667 18.064c0 .701.568 1.27 1.269 1.27v-2a.73.73 0 01.73.73h-2zm2-5c0 .194-.077.38-.214.517l-1.415-1.414a1.27 1.27 0 00-.371.897h2zM17.363 6.75a.103.103 0 010-.146l1.415 1.414c.74-.74.74-1.942 0-2.682l-1.415 1.414zM6.936 19.333c.336 0 .659-.133.897-.371l-1.414-1.415a.73.73 0 01.517-.214v2zm7.73-18.11a1.897 1.897 0 00-2.683 0l1.414 1.413a.103.103 0 01-.146 0l1.415-1.414z" /></symbol><symbol viewBox="0 0 20 20" id="question" xmlns="http://www.w3.org/2000/svg"><path clip-rule="evenodd" d="M10 .833c1.895 0 3.546.387 4.904 1.113a7.572 7.572 0 013.15 3.15c.726 1.358 1.113 3.009 1.113 4.904s-.387 3.546-1.113 4.903a7.573 7.573 0 01-3.15 3.15c-1.358.727-3.009 1.114-4.904 1.114s-3.545-.387-4.903-1.113a7.572 7.572 0 01-3.15-3.15C1.22 13.545.833 11.894.833 10s.387-3.546 1.114-4.904a7.572 7.572 0 013.15-3.15C6.455 1.22 8.105.833 10 .833zm0 15a1.25 1.25 0 100-2.5 1.25 1.25 0 000 2.5zM8.334 7.5l-.006.097A.833.833 0 016.667 7.5a3.333 3.333 0 115.52 2.515l-.093.085c-.543.503-1.26 1.408-1.26 1.567a.833.833 0 11-1.667 0c0-.859.987-2.092 1.926-2.909A1.667 1.667 0 108.333 7.5z"/></symbol></svg>