<?xml version="1.0" encoding="utf-8"?><!DOCTYPE svg PUBLIC "-//W3C//DTD SVG 1.1//EN" "http://www.w3.org/Graphics/SVG/1.1/DTD/svg11.dtd"><svg xmlns="http://www.w3.org/2000/svg" xmlns:xlink="http://www.w3.org/1999/xlink"><symbol viewBox="0 0 14 12" id="arrow-back" xmlns="http://www.w3.org/2000/svg"><path d="M12.833 6H1.167m0 0l5 5m-5-5l5-5"/></symbol><symbol fill="none" viewBox="0 0 14 9" id="arrow-up" xmlns="http://www.w3.org/2000/svg"><path d="M1.167 7.057L7 1.223l5.833 5.834" stroke="#18334A" stroke-width="2" stroke-linecap="round" stroke-linejoin="round"/></symbol><symbol viewBox="0 0 20 20" id="block" xmlns="http://www.w3.org/2000/svg"><path fill-rule="evenodd" clip-rule="evenodd" d="M10 .833c1.895 0 3.545.387 4.903 1.113a7.572 7.572 0 013.15 3.15c.727 1.358 1.113 3.009 1.113 4.904s-.386 3.546-1.113 4.903a7.573 7.573 0 01-3.15 3.15c-1.358.727-3.008 1.114-4.903 1.114-1.896 0-3.546-.387-4.904-1.113a7.572 7.572 0 01-3.15-3.15C1.22 13.545.833 11.894.833 10s.387-3.546 1.113-4.904a7.572 7.572 0 013.15-3.15C6.454 1.22 8.104.833 10 .833zM3.563 5.961C2.977 7.056 2.666 8.414 2.666 10c0 1.585.311 2.944.897 4.039a5.74 5.74 0 002.398 2.398c1.094.585 2.453.896 4.039.896 1.585 0 2.944-.31 4.039-.896l.158-.09a.417.417 0 00.082-.653L4.306 5.72a.417.417 0 00-.654.083l-.09.158zM10 2.667c-1.586 0-2.945.31-4.04.896l-.157.09a.417.417 0 00-.083.653l9.974 9.974a.417.417 0 00.653-.083l.09-.158c.585-1.095.896-2.454.896-4.039 0-1.586-.31-2.944-.896-4.039a5.74 5.74 0 00-2.398-2.398c-1.095-.585-2.454-.896-4.04-.896z"/></symbol><symbol viewBox="0 0 20 20" id="calendar" xmlns="http://www.w3.org/2000/svg"><path d="M4 4V1m4 3V1m4 3V1m4 3V1m3 7H1m2 11h14a2 2 0 002-2V5a2 2 0 00-2-2H3a2 2 0 00-2 2v12a2 2 0 002 2z"/></symbol><symbol fill="none" viewBox="0 0 12 10" id="check" xmlns="http://www.w3.org/2000/svg"><path d="M1 4.5L4.5 8 11 1" stroke="#fff" stroke-width="2"/></symbol><symbol fill="none" viewBox="0 0 12 12" id="decline" xmlns="http://www.w3.org/2000/svg"><path d="M1.333 1.333L6 6m4.667 4.667L6 6m0 0l4.667-4.667-9.334 9.334"/></symbol><symbol viewBox="0 0 20 20" id="edit" xmlns="http://www.w3.org/2000/svg"><path d="M11.341 10.073a1 1 0 00-1.414-1.414l1.414 1.414zm-5.898 3.07a1 1 0 101.414 1.414l-1.414-1.415zm-3.776-.079h-1 1zm0 5h1-1zM18.07 6.042l-.708.707.708-.707zm-4.113-4.113l.707-.707-.707.707zM7.126 18.255l-.707-.707.707.707zM18.07 7.31l.707.707-.707-.707zM1.745 12.874l-.707-.707.707.707zM12.69 1.93l-.707-.707.707.707zM9.927 8.66l-4.484 4.483 1.414 1.415 4.484-4.484-1.414-1.414zm-9.26 4.405v5h2v-5h-2zm6.269 4.27h-5v2h5v-2zm11.842-12l-4.112-4.112-1.415 1.414 4.112 4.113 1.415-1.414zM7.833 18.962l8.889-8.889-1.415-1.414-8.888 8.888 1.414 1.415zm8.889-8.889l2.056-2.056-1.415-1.414-2.056 2.056 1.415 1.414zm-14.27 3.508l8.89-8.888-1.415-1.415-8.889 8.889 1.415 1.414zm8.89-8.888l2.055-2.057-1.414-1.414-2.056 2.056 1.414 1.415zm5.38 3.966l-5.38-5.38-1.415 1.414 5.38 5.38 1.415-1.414zM.667 18.064c0 .701.568 1.27 1.269 1.27v-2a.73.73 0 01.73.73h-2zm2-5c0 .194-.077.38-.214.517l-1.415-1.414a1.27 1.27 0 00-.371.897h2zM17.363 6.75a.103.103 0 010-.146l1.415 1.414c.74-.74.74-1.942 0-2.682l-1.415 1.414zM6.936 19.333c.336 0 .659-.133.897-.371l-1.414-1.415a.73.73 0 01.517-.214v2zm7.73-18.11a1.897 1.897 0 00-2.683 0l1.414 1.413a.103.103 0 01-.146 0l1.415-1.414z"/></symbol><symbol viewBox="0 0 28 28" id="heat" xmlns="http://www.w3.org/2000/svg"><path fill-rule="evenodd" clip-rule="evenodd" d="M24.442 15.934C26.581 14.456 28 11.855 28 8.893 28 4.29 24.574.56 20.349.56c-2.302 0-4.367 1.107-5.77 2.859a9.534 9.534 0 00-.286-.004c-5.647 0-10.225 4.991-10.225 11.149 0 .794.076 1.568.221 2.315C1.855 17.325 0 19.625 0 22.395c0 3.09 2.307 5.594 5.152 5.594 2.117 0 3.935-1.385 4.728-3.366a9.49 9.49 0 004.413 1.09c5.222 0 9.53-4.268 10.15-9.78z" fill-opacity=".22"/><path fill-rule="evenodd" clip-rule="evenodd" d="M21.772 12.106c.997-.673 1.657-1.85 1.657-3.19 0-2.09-1.607-3.785-3.59-3.785-1.265 0-2.377.69-3.017 1.733a4.94 4.94 0 00-.234-.005c-2.867 0-5.191 2.481-5.191 5.543 0 3.06 2.324 5.542 5.191 5.542s5.191-2.481 5.191-5.542c0-.1-.002-.198-.007-.296zM5.477 24.56c1.447 0 2.62-1.238 2.62-2.765 0-1.527-1.173-2.764-2.62-2.764s-2.62 1.238-2.62 2.764c0 1.527 1.173 2.765 2.62 2.765z" fill-opacity=".72"/></symbol><symbol viewBox="0 0 18 18" id="layers" xmlns="http://www.w3.org/2000/svg"><path fill-rule="evenodd" clip-rule="evenodd" d="M16.985 5.71L10.842.934a3 3 0 00-3.684 0L1.015 5.71a1 1 0 000 1.578l6.143 4.779a3 3 0 003.684 0l6.143-4.779a1 1 0 000-1.578zm-.3 4.767a1 1 0 00-1.227 0l-4.616 3.59a3 3 0 01-3.684 0l-4.615-3.59a1 1 0 00-1.228 0l-.3.234a1 1 0 000 1.579l6.143 4.777a3 3 0 003.684 0l6.143-4.778a1.001 1.001 0 000-1.578l-.3-.234z"/></symbol><symbol viewBox="0 0 20 24" id="location" xmlns="http://www.w3.org/2000/svg"><path fill-rule="evenodd" clip-rule="evenodd" d="M10.45 23.194c2.234-2.086 9.05-8.823 9.05-13.363C19.5 4.401 15.135 0 9.75 0S0 4.402 0 9.831c0 4.54 6.816 11.277 9.05 13.363a1.017 1.017 0 001.4 0zm-.7-9.11a4.333 4.333 0 100-8.667 4.333 4.333 0 000 8.666z"/></symbol><symbol viewBox="0 0 18 19" id="location-arrow" xmlns="http://www.w3.org/2000/svg"><path d="M16.07.677L1.324 5.852c-.847.297-.904 1.473-.09 1.85l6.15 2.854 2.889 6.975c.354.855 1.578.812 1.872-.065L17.35 1.938A1 1 0 0016.07.677z"/></symbol><symbol viewBox="0 0 54 37" id="pointer" xmlns="http://www.w3.org/2000/svg"><path d="M39 10H15c4.2 0 9 7 12 7s7.8-7 12-7z"/></symbol><symbol viewBox="0 0 31.357 31.357" id="question" xmlns="http://www.w3.org/2000/svg"><path d="M15.255 0c5.424 0 10.764 2.498 10.764 8.473 0 5.51-6.314 7.629-7.67 9.62-1.018 1.481-.678 3.562-3.475 3.562-1.822 0-2.712-1.482-2.712-2.838 0-5.046 7.414-6.188 7.414-10.343 0-2.287-1.522-3.643-4.066-3.643-5.424 0-3.306 5.592-7.414 5.592-1.483 0-2.756-.89-2.756-2.584C5.339 3.683 10.084 0 15.255 0zm-.211 24.406a3.492 3.492 0 013.475 3.476 3.49 3.49 0 01-3.475 3.476 3.49 3.49 0 01-3.476-3.476 3.491 3.491 0 013.476-3.476z"/></symbol><symbol viewBox="0 0 20 20" id="search" xmlns="http://www.w3.org/2000/svg"><path d="M13.5 13.5l5 5m-3-10a7 7 0 11-14 0 7 7 0 0114 0z"/></symbol><symbol viewBox="0 0 20 162" id="zones" xmlns="http://www.w3.org/2000/svg"><path d="M0 0h20v2H0zM7 8h6v2H7V8zM4 16h12v2H4v-2zM7 24h6v2H7v-2zM4 32h12v2H4v-2zM7 40h6v2H7v-2zM4 48h12v2H4v-2zM7 56h6v2H7v-2zM4 64h12v2H4v-2zM7 72h6v2H7v-2zM4 80h12v2H4v-2zM7 88h6v2H7v-2zM4 96h12v2H4v-2zM7 104h6v2H7v-2zM4 112h12v2H4v-2zM7 120h6v2H7v-2zM4 128h12v2H4v-2zM7 136h6v2H7v-2zM4 144h12v2H4v-2zM7 152h6v2H7v-2zM0 160h20v2H0z"/></symbol></svg>