<?xml version="1.0" encoding="utf-8"?><!DOCTYPE svg PUBLIC "-//W3C//DTD SVG 1.1//EN" "http://www.w3.org/Graphics/SVG/1.1/DTD/svg11.dtd"><svg xmlns="http://www.w3.org/2000/svg" xmlns:xlink="http://www.w3.org/1999/xlink"><symbol viewBox="0 0 14 12" id="arrow-back" xmlns="http://www.w3.org/2000/svg"><path d="M12.833 6H1.167m0 0l5 5m-5-5l5-5"/></symbol><symbol fill="none" viewBox="0 0 14 9" id="arrow-up" xmlns="http://www.w3.org/2000/svg"><path d="M1.167 7.057L7 1.223l5.833 5.834" stroke="#18334A" stroke-width="2" stroke-linecap="round" stroke-linejoin="round"/></symbol><symbol viewBox="0 0 20 20" id="block" xmlns="http://www.w3.org/2000/svg"><path fill-rule="evenodd" clip-rule="evenodd" d="M10 .833c1.895 0 3.545.387 4.903 1.113a7.572 7.572 0 013.15 3.15c.727 1.358 1.113 3.009 1.113 4.904s-.386 3.546-1.113 4.903a7.573 7.573 0 01-3.15 3.15c-1.358.727-3.008 1.114-4.903 1.114-1.896 0-3.546-.387-4.904-1.113a7.572 7.572 0 01-3.15-3.15C1.22 13.545.833 11.894.833 10s.387-3.546 1.113-4.904a7.572 7.572 0 013.15-3.15C6.454 1.22 8.104.833 10 .833zM3.563 5.961C2.977 7.056 2.666 8.414 2.666 10c0 1.585.311 2.944.897 4.039a5.74 5.74 0 002.398 2.398c1.094.585 2.453.896 4.039.896 1.585 0 2.944-.31 4.039-.896l.158-.09a.417.417 0 00.082-.653L4.306 5.72a.417.417 0 00-.654.083l-.09.158zM10 2.667c-1.586 0-2.945.31-4.04.896l-.157.09a.417.417 0 00-.083.653l9.974 9.974a.417.417 0 00.653-.083l.09-.158c.585-1.095.896-2.454.896-4.039 0-1.586-.31-2.944-.896-4.039a5.74 5.74 0 00-2.398-2.398c-1.095-.585-2.454-.896-4.04-.896z"/></symbol><symbol viewBox="0 0 20 20" id="calendar" xmlns="http://www.w3.org/2000/svg"><path d="M4 4V1m4 3V1m4 3V1m4 3V1m3 7H1m2 11h14a2 2 0 002-2V5a2 2 0 00-2-2H3a2 2 0 00-2 2v12a2 2 0 002 2z"/></symbol><symbol viewBox="0 0 24 20" id="car" xmlns="http://www.w3.org/2000/svg"><path d="M23.948 8.347l-.31-.91c-.172-.5-.716-.908-1.22-.908h-1.06a71.565 71.565 0 00-1.575-4.06c-.415-.944-1.744-1.144-2.476-1.352 0 0-1.221-.375-5.296-.375-4.076 0-5.296.375-5.296.375-.856.29-2.047.475-2.52 1.395-.189.364-.885 2.08-1.56 4.017H1.587c-.501 0-1.049.408-1.221.909l-.312.909c-.173.504.096 1.089.597 1.089h1.048c-.279.816-.468 1.192-.468 1.192-.076.135-.132.749-.132.915v6.804c0 .504.405.91.908.91h2.527a.908.908 0 00.91-.91v-1.275h13.132v1.275a.91.91 0 00.909.91h2.527a.908.908 0 00.91-.91v-6.804c0-.165-.056-.78-.136-.915 0 0-.192-.38-.475-1.192h1.04c.5 0 .768-.585.595-1.09h.002zM6.645 13.804H5.436c-1.08 0-2.157-.16-2.157-.91v-.908c0-.876.463-.91.967-.91.49 0 1.461.454 2.103.766.7.34 1.476.624 1.476 1.192 0 .528-.271.771-1.179.771l-.001-.001zM4.12 7.5c.64-2.532 1.335-3.483 1.485-3.88.123-.292.243-1.186 6.401-1.186 6.163 0 6.305 1.025 6.324 1.035.189.543.944 1.697 1.548 4.032 0 0-2.604.848-7.869.848-5.268-.003-7.889-.848-7.889-.848v-.001zm16.62 5.394c0 .748-1.08.909-2.16.909h-1.207c-.912 0-1.179-.243-1.179-.765 0-.569.78-.852 1.476-1.193.64-.312 1.611-.765 2.1-.765.501 0 .969.032.969.91v.904h.002z"/></symbol><symbol fill="none" viewBox="0 0 12 10" id="check" xmlns="http://www.w3.org/2000/svg"><path d="M1 4.5L4.5 8 11 1" stroke="#fff" stroke-width="2"/></symbol><symbol fill="none" viewBox="0 0 12 12" id="decline" xmlns="http://www.w3.org/2000/svg"><path d="M1.333 1.333L6 6m4.667 4.667L6 6m0 0l4.667-4.667-9.334 9.334"/></symbol><symbol viewBox="0 0 20 20" id="edit" xmlns="http://www.w3.org/2000/svg"><path d="M11.341 10.073a1 1 0 00-1.414-1.414l1.414 1.414zm-5.898 3.07a1 1 0 101.414 1.414l-1.414-1.415zm-3.776-.079h-1 1zm0 5h1-1zM18.07 6.042l-.708.707.708-.707zm-4.113-4.113l.707-.707-.707.707zM7.126 18.255l-.707-.707.707.707zM18.07 7.31l.707.707-.707-.707zM1.745 12.874l-.707-.707.707.707zM12.69 1.93l-.707-.707.707.707zM9.927 8.66l-4.484 4.483 1.414 1.415 4.484-4.484-1.414-1.414zm-9.26 4.405v5h2v-5h-2zm6.269 4.27h-5v2h5v-2zm11.842-12l-4.112-4.112-1.415 1.414 4.112 4.113 1.415-1.414zM7.833 18.962l8.889-8.889-1.415-1.414-8.888 8.888 1.414 1.415zm8.889-8.889l2.056-2.056-1.415-1.414-2.056 2.056 1.415 1.414zm-14.27 3.508l8.89-8.888-1.415-1.415-8.889 8.889 1.415 1.414zm8.89-8.888l2.055-2.057-1.414-1.414-2.056 2.056 1.414 1.415zm5.38 3.966l-5.38-5.38-1.415 1.414 5.38 5.38 1.415-1.414zM.667 18.064c0 .701.568 1.27 1.269 1.27v-2a.73.73 0 01.73.73h-2zm2-5c0 .194-.077.38-.214.517l-1.415-1.414a1.27 1.27 0 00-.371.897h2zM17.363 6.75a.103.103 0 010-.146l1.415 1.414c.74-.74.74-1.942 0-2.682l-1.415 1.414zM6.936 19.333c.336 0 .659-.133.897-.371l-1.414-1.415a.73.73 0 01.517-.214v2zm7.73-18.11a1.897 1.897 0 00-2.683 0l1.414 1.413a.103.103 0 01-.146 0l1.415-1.414z"/></symbol><symbol viewBox="0 0 28 28" id="heat" xmlns="http://www.w3.org/2000/svg"><path fill-rule="evenodd" clip-rule="evenodd" d="M24.442 15.934C26.581 14.456 28 11.855 28 8.893 28 4.29 24.574.56 20.349.56c-2.302 0-4.367 1.107-5.77 2.859a9.534 9.534 0 00-.286-.004c-5.647 0-10.225 4.991-10.225 11.149 0 .794.076 1.568.221 2.315C1.855 17.325 0 19.625 0 22.395c0 3.09 2.307 5.594 5.152 5.594 2.117 0 3.935-1.385 4.728-3.366a9.49 9.49 0 004.413 1.09c5.222 0 9.53-4.268 10.15-9.78z" fill-opacity=".22"/><path fill-rule="evenodd" clip-rule="evenodd" d="M21.772 12.106c.997-.673 1.657-1.85 1.657-3.19 0-2.09-1.607-3.785-3.59-3.785-1.265 0-2.377.69-3.017 1.733a4.94 4.94 0 00-.234-.005c-2.867 0-5.191 2.481-5.191 5.543 0 3.06 2.324 5.542 5.191 5.542s5.191-2.481 5.191-5.542c0-.1-.002-.198-.007-.296zM5.477 24.56c1.447 0 2.62-1.238 2.62-2.765 0-1.527-1.173-2.764-2.62-2.764s-2.62 1.238-2.62 2.764c0 1.527 1.173 2.765 2.62 2.765z" fill-opacity=".72"/></symbol><symbol viewBox="0 0 18 18" id="layers" xmlns="http://www.w3.org/2000/svg"><path fill-rule="evenodd" clip-rule="evenodd" d="M16.985 5.71L10.842.934a3 3 0 00-3.684 0L1.015 5.71a1 1 0 000 1.578l6.143 4.779a3 3 0 003.684 0l6.143-4.779a1 1 0 000-1.578zm-.3 4.767a1 1 0 00-1.227 0l-4.616 3.59a3 3 0 01-3.684 0l-4.615-3.59a1 1 0 00-1.228 0l-.3.234a1 1 0 000 1.579l6.143 4.777a3 3 0 003.684 0l6.143-4.778a1.001 1.001 0 000-1.578l-.3-.234z"/></symbol><symbol viewBox="0 0 20 24" id="location" xmlns="http://www.w3.org/2000/svg"><path fill-rule="evenodd" clip-rule="evenodd" d="M10.45 23.194c2.234-2.086 9.05-8.823 9.05-13.363C19.5 4.401 15.135 0 9.75 0S0 4.402 0 9.831c0 4.54 6.816 11.277 9.05 13.363a1.017 1.017 0 001.4 0zm-.7-9.11a4.333 4.333 0 100-8.667 4.333 4.333 0 000 8.666z"/></symbol><symbol viewBox="0 0 18 19" id="location-arrow" xmlns="http://www.w3.org/2000/svg"><path d="M16.07.677L1.324 5.852c-.847.297-.904 1.473-.09 1.85l6.15 2.854 2.889 6.975c.354.855 1.578.812 1.872-.065L17.35 1.938A1 1 0 0016.07.677z"/></symbol><symbol fill="none" viewBox="0 0 20 20" id="map" xmlns="http://www.w3.org/2000/svg"><g clip-path="url(#mclip0)"><path d="M.833 5v13.333L6.667 15l6.666 3.333L19.167 15V1.667L13.333 5 6.667 1.667.833 5z" stroke="#18334A" stroke-width="2" stroke-linecap="round" stroke-linejoin="round"/><path d="M6.667 1.667V15M13.333 5v13.333"/></g><defs><clipPath id="mclip0"><path d="M0 0h20v20H0z"/></clipPath></defs></symbol><symbol viewBox="0 0 16 12" id="photo" xmlns="http://www.w3.org/2000/svg"><path fill-rule="evenodd" clip-rule="evenodd" d="M14.943 11.61c.25-.25.39-.59.39-.943V3.333A1.334 1.334 0 0014 2h-2.667L10 0H6L4.667 2H2A1.333 1.333 0 00.667 3.333v7.334A1.333 1.333 0 002 12h12c.354 0 .693-.14.943-.39zm-4.276-4.943a2.667 2.667 0 11-5.334 0 2.667 2.667 0 015.334 0z"/></symbol><symbol fill="none" viewBox="0 0 36 50" id="pin" xmlns="http://www.w3.org/2000/svg"><path fill-rule="evenodd" clip-rule="evenodd" d="M18 50c2.21 0 4-.895 4-2s-1.79-2-4-2-4 .895-4 2 1.79 2 4 2z" fill="#18334A"/><rect x="17" y="30" width="2" height="18" rx="1" fill="#18334A"/><path d="M17.89 0h.22c3.768 0 6.962.752 9.602 2.164a14.72 14.72 0 016.124 6.124C35.248 10.928 36 14.122 36 17.89v.22c0 3.768-.752 6.962-2.164 9.602a14.72 14.72 0 01-6.124 6.124C25.072 35.248 21.878 36 18.11 36h-.22c-3.768 0-6.963-.752-9.602-2.164a14.72 14.72 0 01-6.124-6.124C.814 25.187.067 22.155.004 18.6L0 17.889c0-3.767.752-6.961 2.164-9.601a14.72 14.72 0 016.124-6.124C10.928.752 14.122 0 17.89 0z" fill="#18334A"/><path d="M17.926 6h.148c2.511 0 4.641.501 6.401 1.443a9.814 9.814 0 014.082 4.082C29.5 13.285 30 15.415 30 17.926v.148c0 2.511-.501 4.641-1.442 6.401a9.814 9.814 0 01-4.083 4.082C22.715 29.5 20.585 30 18.074 30h-.148c-2.511 0-4.641-.501-6.401-1.442a9.814 9.814 0 01-4.082-4.083c-.9-1.684-1.399-3.705-1.44-6.076L6 17.926c0-2.511.501-4.641 1.443-6.401a9.813 9.813 0 014.082-4.082C13.285 6.5 15.415 6 17.926 6z" fill="#F4F8FA"/><path d="M17.963 12h.074c1.256 0 2.32.25 3.2.721.88.47 1.571 1.162 2.042 2.041.47.88.721 1.945.721 3.201v.074c0 1.256-.25 2.32-.721 3.2a4.906 4.906 0 01-2.041 2.042c-.88.47-1.945.721-3.201.721h-.074c-1.256 0-2.32-.25-3.2-.721a4.906 4.906 0 01-2.042-2.041c-.45-.842-.699-1.853-.72-3.038L12 17.963c0-1.256.25-2.32.721-3.2a4.906 4.906 0 012.041-2.042c.88-.47 1.945-.721 3.201-.721zM18 43.998s.417-1.33 1-2.998c0-2.223 2.056-4.863 6-6H11.018C14.95 36.137 17 38.836 17 41c.581 1.668 1 2.998 1 2.998z" fill="#18334A"/></symbol><symbol viewBox="0 0 54 37" id="pointer" xmlns="http://www.w3.org/2000/svg"><path d="M39 10H15c4.2 0 9 7 12 7s7.8-7 12-7z"/></symbol><symbol viewBox="0 0 17 19" id="profile" xmlns="http://www.w3.org/2000/svg"><path d="M13.05 11.327c-1.265 1.9-2.936 3.23-4.907 3.23s-3.643-1.33-4.907-3.232C1.895 11.868 0 12.897 0 14.584c0 1.657.794 3.164 2.382 3.638 1.372.41 3.308.778 5.76.778 2.453 0 4.39-.369 5.762-.778 1.588-.475 2.382-1.981 2.382-3.638 0-1.684-1.896-2.714-3.236-3.257z"/><path d="M3.798 9.633C3.114 8.02 2.714 6.074 2.714 4.108 2.714 1.875 5.104 0 8.143 0c3.038 0 5.428 1.875 5.428 4.108 0 1.966-.4 3.913-1.083 5.525l-.004-.002c-1.246 2.314-2.796 3.57-4.341 3.57-1.545 0-3.095-1.256-4.341-3.57l-.004.002z"/></symbol><symbol viewBox="0 0 24 24" id="profile-circle" xmlns="http://www.w3.org/2000/svg"><path fill-rule="evenodd" clip-rule="evenodd" d="M2 12C2 6.477 6.477 2 12 2s10 4.477 10 10c0 2.261-.75 4.347-2.016 6.022a3.12 3.12 0 00.087-.706c0-1.453-1.831-2.372-3.223-2.888-1.154 1.894-2.824 3.322-4.848 3.322-2.022 0-3.69-1.424-4.844-3.314-1.355.516-3.116 1.433-3.116 2.88 0 .287.045.592.128.902A9.957 9.957 0 012 12zM12 0C5.373 0 0 5.373 0 12s5.373 12 12 12 12-5.373 12-12S18.627 0 12 0zm4.946 7.744c0 2.217-.548 4.414-1.46 6.035-1.02 1.613-2.257 2.471-3.486 2.471s-2.466-.858-3.486-2.471c-.912-1.621-1.459-3.818-1.459-6.035C7.055 5.705 9.225 4 12 4c2.774 0 4.946 1.705 4.946 3.744z"/></symbol><symbol viewBox="0 0 31.357 31.357" id="question" xmlns="http://www.w3.org/2000/svg"><path d="M15.255 0c5.424 0 10.764 2.498 10.764 8.473 0 5.51-6.314 7.629-7.67 9.62-1.018 1.481-.678 3.562-3.475 3.562-1.822 0-2.712-1.482-2.712-2.838 0-5.046 7.414-6.188 7.414-10.343 0-2.287-1.522-3.643-4.066-3.643-5.424 0-3.306 5.592-7.414 5.592-1.483 0-2.756-.89-2.756-2.584C5.339 3.683 10.084 0 15.255 0zm-.211 24.406a3.492 3.492 0 013.475 3.476 3.49 3.49 0 01-3.475 3.476 3.49 3.49 0 01-3.476-3.476 3.491 3.491 0 013.476-3.476z"/></symbol><symbol viewBox="0 0 20 20" id="search" xmlns="http://www.w3.org/2000/svg"><path d="M13.5 13.5l5 5m-3-10a7 7 0 11-14 0 7 7 0 0114 0z"/></symbol><symbol viewBox="0 0 20 16" id="videocamera" xmlns="http://www.w3.org/2000/svg"><path d="M14.583 12.98l2.775 1.648c.376.228.818.372 1.216.372.862 0 1.426-.432 1.426-1.055v-7.89C20 5.433 19.436 5 18.574 5c-.398 0-.84.144-1.216.372l-2.775 1.642v5.967z"/><path fill-rule="evenodd" clip-rule="evenodd" d="M13.333 6.667a2.5 2.5 0 00-2.5-2.5H2.5a2.5 2.5 0 00-2.5 2.5v6.666a2.5 2.5 0 002.5 2.5h8.333a2.5 2.5 0 002.5-2.5V6.667z"/></symbol><symbol viewBox="0 0 22 22" id="wheel" xmlns="http://www.w3.org/2000/svg"><path d="M11 0C4.95 0 0 4.95 0 11s4.95 11 11 11 11-4.95 11-11S17.05 0 11 0zM2.338 7.15C3.85 3.85 7.15 1.65 11 1.65c3.85 0 7.15 2.2 8.663 5.5.137.275.137.412 0 .688-.138.275-.276.412-.55.412l-3.163.688c-.412.137-.825-.138-1.1-.413-.825-1.375-2.2-2.2-3.85-2.2a4.57 4.57 0 00-3.85 2.062c-.275.413-.688.55-1.1.413l-3.162-.688c-.138 0-.413-.137-.55-.412v-.55zM9.9 19.525c0 .275-.138.413-.275.55-.137.137-.412.137-.688.137-4.262-.825-7.424-4.675-7.424-9.212 0-.275.137-.412.275-.55.137-.137.412-.137.687-.137L5.638 11c.412 0 .687.275.825.688.274 1.65 1.375 3.024 2.887 3.574.412.138.688.55.688.963v3.3H9.9zm3.162.688c-.274 0-.412 0-.687-.138-.137-.137-.275-.412-.275-.55v-3.162c0-.413.275-.825.688-.963 1.512-.55 2.612-1.925 2.887-3.575 0-.412.412-.688.825-.825l3.163-.688c.274 0 .412 0 .687.138.137.138.275.413.275.55-.137 4.537-3.3 8.387-7.563 9.212z"/></symbol><symbol viewBox="0 0 20 162" id="zones" xmlns="http://www.w3.org/2000/svg"><path d="M0 0h20v2H0zM7 8h6v2H7V8zM4 16h12v2H4v-2zM7 24h6v2H7v-2zM4 32h12v2H4v-2zM7 40h6v2H7v-2zM4 48h12v2H4v-2zM7 56h6v2H7v-2zM4 64h12v2H4v-2zM7 72h6v2H7v-2zM4 80h12v2H4v-2zM7 88h6v2H7v-2zM4 96h12v2H4v-2zM7 104h6v2H7v-2zM4 112h12v2H4v-2zM7 120h6v2H7v-2zM4 128h12v2H4v-2zM7 136h6v2H7v-2zM4 144h12v2H4v-2zM7 152h6v2H7v-2zM0 160h20v2H0z"/></symbol></svg>