<svg width="171" height="23" viewBox="0 0 171 23" fill="none" xmlns="http://www.w3.org/2000/svg">
<g style="mix-blend-mode:multiply">
<path d="M10.7016 21.3838C16.6119 21.3838 21.4032 16.5969 21.4032 10.6919C21.4032 4.78692 16.6119 0 10.7016 0C4.79127 0 0 4.78692 0 10.6919C0 16.5969 4.79127 21.3838 10.7016 21.3838Z" fill="#FF001A"/>
</g>
<path d="M41.982 9.4953L46.8117 3.42672H41.9354L36.8723 10.047V3.42672H32.6959V17.9649H36.8723V14.7869L36.8956 14.7558L38.9333 12.246L42.3164 17.9649H47.2939L41.9354 9.55746L41.982 9.4953Z" fill="black"/>
<path d="M55.1256 2.95272C54.0947 2.91692 53.0673 3.09343 52.1075 3.47125C51.1477 3.84908 50.276 4.42014 49.5465 5.14894C48.8171 5.87774 48.2455 6.74868 47.8673 7.70761C47.4892 8.66653 47.3125 9.69293 47.3483 10.723C47.3125 11.753 47.4892 12.7794 47.8673 13.7384C48.2455 14.6973 48.8171 15.5682 49.5465 16.297C50.276 17.0258 51.1477 17.5969 52.1075 17.9747C53.0673 18.3525 54.0947 18.5291 55.1256 18.4933C56.7682 18.4949 58.3642 17.9479 59.6598 16.9392L59.7998 16.8226L60.0176 18.0348H63.564V3.4267H60.0176L59.8231 4.65441L59.6754 4.53785C58.382 3.51043 56.778 2.95162 55.1256 2.95272ZM55.5534 14.8801C55.0061 14.8894 54.4627 14.786 53.9571 14.5765C53.4515 14.367 52.9944 14.0558 52.6144 13.6622C52.2343 13.2687 51.9394 12.8012 51.7479 12.2888C51.5564 11.7765 51.4725 11.2303 51.5014 10.6841C51.4736 10.141 51.5579 9.59804 51.7492 9.08891C51.9404 8.57978 52.2345 8.11543 52.6131 7.72476C52.9918 7.33408 53.4468 7.02545 53.95 6.81806C54.4531 6.61067 54.9936 6.50896 55.5378 6.51927C56.0818 6.51365 56.6213 6.61836 57.1235 6.82707C57.6258 7.03578 58.0805 7.34415 58.46 7.73351C58.8396 8.12287 59.1361 8.58513 59.3316 9.0923C59.5271 9.59947 59.6176 10.141 59.5976 10.6841C59.6264 11.2296 59.5428 11.7752 59.3518 12.287C59.1608 12.7988 58.8665 13.2659 58.4873 13.6593C58.1081 14.0528 57.652 14.3642 57.1473 14.5742C56.6426 14.7842 56.1001 14.8883 55.5534 14.8801Z" fill="black"/>
<path d="M70.5014 4.65434L70.3692 4.76313L70.0581 3.42664H66.7449V22.9922H70.9214V17.0091L71.1002 17.1412C72.3145 18.0024 73.7721 18.4542 75.2611 18.431C76.2921 18.4768 77.3214 18.3067 78.2827 17.9317C79.2441 17.5567 80.1163 16.985 80.8435 16.2533C81.5707 15.5216 82.1368 14.6462 82.5054 13.6831C82.874 12.72 83.037 11.6905 82.984 10.6608C83.0155 9.63362 82.8356 8.61095 82.4554 7.6561C82.0752 6.70126 81.5028 5.83458 80.7737 5.10976C80.0446 4.38495 79.1743 3.81743 78.2167 3.44237C77.2591 3.06731 76.2346 2.89269 75.2067 2.92934C73.4843 2.93511 71.8187 3.54571 70.5014 4.65434ZM78.7609 10.6996C78.7887 11.242 78.7046 11.7844 78.5138 12.293C78.323 12.8016 78.0296 13.2655 77.6518 13.6561C77.274 14.0467 76.8199 14.3555 76.3177 14.5633C75.8154 14.7712 75.2758 14.8737 74.7322 14.8645C74.1889 14.869 73.6503 14.7636 73.149 14.5544C72.6476 14.3452 72.1939 14.0367 71.8152 13.6474C71.4365 13.2582 71.1407 12.7963 70.9456 12.2896C70.7505 11.783 70.6603 11.2421 70.6803 10.6996C70.6563 10.1546 70.7431 9.61041 70.9353 9.09982C71.1276 8.58923 71.4213 8.12282 71.7989 7.72871C72.1764 7.3346 72.6299 7.02095 73.1321 6.80667C73.6342 6.5924 74.1746 6.48193 74.7206 6.48193C75.2666 6.48193 75.807 6.5924 76.3091 6.80667C76.8112 7.02095 77.2647 7.3346 77.6423 7.72871C78.0198 8.12282 78.3136 8.58923 78.5058 9.09982C78.6981 9.61041 78.7848 10.1546 78.7609 10.6996Z" fill="black"/>
<path d="M88.0626 17.9649H92.2157V6.94665H96.2599V3.42672H84.0184V6.94665H88.0626V17.9649Z" fill="black"/>
<path d="M105.118 2.95272C104.087 2.91692 103.06 3.09343 102.1 3.47125C101.14 3.84908 100.269 4.42014 99.5392 5.14894C98.8097 5.87774 98.2381 6.74868 97.86 7.70761C97.4818 8.66653 97.3052 9.69293 97.341 10.723C97.3052 11.753 97.4818 12.7794 97.86 13.7384C98.2381 14.6973 98.8097 15.5682 99.5392 16.297C100.269 17.0258 101.14 17.5969 102.1 17.9747C103.06 18.3525 104.087 18.5291 105.118 18.4933C106.761 18.4937 108.356 17.9468 109.652 16.9392L109.792 16.8226L110.01 18.0348H113.549V3.4267H110.01L109.808 4.65441L109.66 4.53785C108.369 3.51155 106.768 2.95277 105.118 2.95272ZM105.546 14.8801C104.998 14.8893 104.455 14.786 103.949 14.5766C103.443 14.3671 102.985 14.056 102.605 13.6626C102.224 13.2692 101.928 12.8018 101.736 12.2894C101.543 11.777 101.459 11.2306 101.486 10.6841C101.46 10.1407 101.545 9.59749 101.737 9.08834C101.929 8.57919 102.224 8.11494 102.603 7.72439C102.983 7.33384 103.438 7.02534 103.942 6.81803C104.445 6.61072 104.986 6.50903 105.53 6.51927C106.074 6.5147 106.612 6.6202 107.114 6.82938C107.615 7.03856 108.069 7.34709 108.448 7.73634C108.826 8.12559 109.122 8.58749 109.317 9.09413C109.512 9.60078 109.602 10.1417 109.582 10.6841C109.612 11.2292 109.53 11.7746 109.34 12.2864C109.15 12.7982 108.856 13.2654 108.477 13.659C108.099 14.0526 107.643 14.3641 107.139 14.5742C106.635 14.7842 106.092 14.8884 105.546 14.8801Z" fill="black"/>
<path d="M139.852 3.42672H127.408L127.058 7.23415C126.77 10.6841 125.853 12.9064 124.087 14.4216H122.975V21.0186H126.553L127.206 17.9105H137.169L137.822 21.0186H141.407V14.4527H139.852V3.42672ZM135.683 14.4527H128.334L128.536 14.2585C130.091 12.8132 130.776 11.2591 131.048 8.74158L131.235 6.94665H135.683V14.4527Z" fill="black"/>
<path d="M146.253 17.9649H150.406V6.94665H154.45V3.42672H142.208V6.94665H146.253V17.9649Z" fill="black"/>
<path d="M160.431 6.99327H166.808V17.9649H171V3.42672H156.223V17.9649H160.431V6.99327Z" fill="black"/>
</svg>
